<mxfile host="app.diagrams.net" modified="2021-12-18T09:49:17.657Z" agent="5.0 (Macintosh; Intel Mac OS X 10_15_7) AppleWebKit/537.36 (KHTML, like Gecko) Chrome/96.0.4664.110 Safari/537.36" etag="H51IzMJARcarX2VVzv1_" version="16.0.0" type="github">
  <diagram id="HVBfA5njpOnYeU9KZHsN" name="Page-1">
    <mxGraphModel dx="1025" dy="489" grid="1" gridSize="10" guides="1" tooltips="1" connect="1" arrows="1" fold="1" page="1" pageScale="1" pageWidth="827" pageHeight="1169" math="0" shadow="0">
      <root>
        <mxCell id="0" />
        <mxCell id="1" parent="0" />
        <mxCell id="QFjQeapoT2HNyd6oGGUI-1" value="" style="rounded=0;whiteSpace=wrap;html=1;" parent="1" vertex="1">
          <mxGeometry x="60" y="60" width="730" height="460" as="geometry" />
        </mxCell>
        <mxCell id="o9f4KpwQg1YmGxY4Iknc-1" value="&lt;b&gt;&lt;u style=&quot;background-color: rgb(51 , 255 , 51)&quot;&gt;Home&lt;/u&gt;&lt;/b&gt;&lt;br&gt;&lt;br&gt;&lt;br&gt;&lt;br&gt;&lt;br&gt;&lt;br&gt;&lt;br&gt;" style="rounded=0;whiteSpace=wrap;html=1;" parent="1" vertex="1">
          <mxGeometry x="260" y="80" width="320" height="190" as="geometry" />
        </mxCell>
        <mxCell id="o9f4KpwQg1YmGxY4Iknc-11" style="edgeStyle=orthogonalEdgeStyle;rounded=0;orthogonalLoop=1;jettySize=auto;html=1;exitX=1;exitY=0.5;exitDx=0;exitDy=0;entryX=0.5;entryY=0;entryDx=0;entryDy=0;fontSize=10;" parent="1" source="o9f4KpwQg1YmGxY4Iknc-2" target="o9f4KpwQg1YmGxY4Iknc-6" edge="1">
          <mxGeometry relative="1" as="geometry" />
        </mxCell>
        <mxCell id="o9f4KpwQg1YmGxY4Iknc-2" value="&lt;font style=&quot;font-size: 10px&quot;&gt;Input de texto + botón&lt;/font&gt;" style="text;html=1;strokeColor=none;fillColor=none;align=center;verticalAlign=middle;whiteSpace=wrap;rounded=0;" parent="1" vertex="1">
          <mxGeometry x="365" y="130" width="110" height="30" as="geometry" />
        </mxCell>
        <mxCell id="o9f4KpwQg1YmGxY4Iknc-4" value="&lt;span style=&quot;background-color: rgb(51 , 255 , 51)&quot;&gt;&lt;b&gt;Pokecard&lt;/b&gt;&lt;br&gt;&lt;/span&gt;&lt;font style=&quot;font-size: 10px&quot;&gt;Datos e img de pokemon&lt;/font&gt;" style="rounded=0;whiteSpace=wrap;html=1;" parent="1" vertex="1">
          <mxGeometry x="270" y="190" width="90" height="70" as="geometry" />
        </mxCell>
        <mxCell id="o9f4KpwQg1YmGxY4Iknc-9" style="edgeStyle=orthogonalEdgeStyle;rounded=0;orthogonalLoop=1;jettySize=auto;html=1;exitX=0.5;exitY=1;exitDx=0;exitDy=0;entryX=1;entryY=0.75;entryDx=0;entryDy=0;fontSize=10;" parent="1" source="o9f4KpwQg1YmGxY4Iknc-6" target="o9f4KpwQg1YmGxY4Iknc-4" edge="1">
          <mxGeometry relative="1" as="geometry">
            <Array as="points">
              <mxPoint x="450" y="243" />
              <mxPoint x="380" y="243" />
            </Array>
          </mxGeometry>
        </mxCell>
        <mxCell id="o9f4KpwQg1YmGxY4Iknc-6" value="&lt;i&gt;&lt;font style=&quot;font-size: 10px&quot;&gt;useState&lt;br&gt;inputValue (&quot;&quot;)&lt;br&gt;pokemonData ({})&lt;/font&gt;&lt;/i&gt;" style="text;html=1;strokeColor=none;fillColor=none;align=center;verticalAlign=middle;whiteSpace=wrap;rounded=0;" parent="1" vertex="1">
          <mxGeometry x="470" y="170" width="100.5" height="70" as="geometry" />
        </mxCell>
        <mxCell id="o9f4KpwQg1YmGxY4Iknc-12" value="&lt;b&gt;&lt;u style=&quot;background-color: rgb(51 , 255 , 51)&quot;&gt;Allpokemons&lt;/u&gt;&lt;/b&gt;&lt;br&gt;&lt;br&gt;&lt;br&gt;&lt;br&gt;&lt;br&gt;&lt;br&gt;&lt;br&gt;" style="rounded=0;whiteSpace=wrap;html=1;" parent="1" vertex="1">
          <mxGeometry x="80" y="290" width="320" height="190" as="geometry" />
        </mxCell>
        <mxCell id="o9f4KpwQg1YmGxY4Iknc-13" style="edgeStyle=orthogonalEdgeStyle;rounded=0;orthogonalLoop=1;jettySize=auto;html=1;exitX=1;exitY=0.5;exitDx=0;exitDy=0;entryX=0.5;entryY=0;entryDx=0;entryDy=0;fontSize=10;" parent="1" source="o9f4KpwQg1YmGxY4Iknc-14" target="o9f4KpwQg1YmGxY4Iknc-18" edge="1">
          <mxGeometry relative="1" as="geometry">
            <Array as="points">
              <mxPoint x="340" y="369" />
            </Array>
          </mxGeometry>
        </mxCell>
        <mxCell id="o9f4KpwQg1YmGxY4Iknc-14" value="&lt;span style=&quot;font-size: 10px&quot;&gt;Input de texto + botón&lt;/span&gt;" style="text;html=1;strokeColor=none;fillColor=none;align=center;verticalAlign=middle;whiteSpace=wrap;rounded=0;" parent="1" vertex="1">
          <mxGeometry x="186" y="354" width="110" height="30" as="geometry" />
        </mxCell>
        <mxCell id="o9f4KpwQg1YmGxY4Iknc-16" value="&lt;b&gt;Pokelist.&amp;nbsp; &amp;nbsp; &amp;nbsp; &amp;nbsp; &amp;nbsp;&amp;nbsp;&lt;/b&gt;&lt;br&gt;&lt;font style=&quot;font-size: 10px&quot;&gt;Datos e img de pokemon&lt;/font&gt;" style="rounded=0;whiteSpace=wrap;html=1;" parent="1" vertex="1">
          <mxGeometry x="90" y="381" width="90" height="70" as="geometry" />
        </mxCell>
        <mxCell id="o9f4KpwQg1YmGxY4Iknc-25" style="edgeStyle=orthogonalEdgeStyle;rounded=0;orthogonalLoop=1;jettySize=auto;html=1;exitX=0.5;exitY=1;exitDx=0;exitDy=0;fontSize=10;" parent="1" source="o9f4KpwQg1YmGxY4Iknc-18" target="o9f4KpwQg1YmGxY4Iknc-23" edge="1">
          <mxGeometry relative="1" as="geometry">
            <Array as="points">
              <mxPoint x="250" y="450" />
              <mxPoint x="250" y="436" />
            </Array>
          </mxGeometry>
        </mxCell>
        <mxCell id="o9f4KpwQg1YmGxY4Iknc-18" value="&lt;i&gt;&lt;font style=&quot;font-size: 10px&quot;&gt;useState&lt;br&gt;inputValue (&quot;&quot;)&lt;br&gt;pokemonsData ([{}])&lt;/font&gt;&lt;/i&gt;" style="text;html=1;strokeColor=none;fillColor=none;align=center;verticalAlign=middle;whiteSpace=wrap;rounded=0;" parent="1" vertex="1">
          <mxGeometry x="290" y="380" width="100.5" height="70" as="geometry" />
        </mxCell>
        <mxCell id="o9f4KpwQg1YmGxY4Iknc-19" value="&lt;font style=&quot;font-size: 10px&quot;&gt;&lt;i&gt;Se busca y guarda 1 pokemon en el estado { }&lt;/i&gt;&lt;/font&gt;" style="text;html=1;strokeColor=none;fillColor=none;align=center;verticalAlign=middle;whiteSpace=wrap;rounded=0;" parent="1" vertex="1">
          <mxGeometry x="260" y="80" width="320" height="30" as="geometry" />
        </mxCell>
        <mxCell id="o9f4KpwQg1YmGxY4Iknc-20" value="&lt;span style=&quot;font-size: 10px&quot;&gt;&lt;i&gt;el pokemon encontrado deberá concatenarse a la lista [] (state)&lt;/i&gt;&lt;/span&gt;" style="text;html=1;strokeColor=none;fillColor=none;align=center;verticalAlign=middle;whiteSpace=wrap;rounded=0;" parent="1" vertex="1">
          <mxGeometry x="80" y="290" width="320" height="30" as="geometry" />
        </mxCell>
        <mxCell id="o9f4KpwQg1YmGxY4Iknc-22" value="&lt;b&gt;Pokelist.&amp;nbsp; &amp;nbsp; &amp;nbsp; &amp;nbsp;&lt;/b&gt;&lt;br&gt;&lt;font style=&quot;font-size: 10px&quot;&gt;Datos e img de pokemon&lt;/font&gt;" style="rounded=0;whiteSpace=wrap;html=1;" parent="1" vertex="1">
          <mxGeometry x="100" y="391" width="90" height="70" as="geometry" />
        </mxCell>
        <mxCell id="o9f4KpwQg1YmGxY4Iknc-23" value="&lt;span style=&quot;background-color: rgb(51 , 255 , 51)&quot;&gt;&lt;b&gt;Pokecardlist&lt;/b&gt;&lt;br&gt;&lt;/span&gt;&lt;font style=&quot;font-size: 10px&quot;&gt;Datos e img de los pokemons&lt;/font&gt;" style="rounded=0;whiteSpace=wrap;html=1;" parent="1" vertex="1">
          <mxGeometry x="120" y="401" width="90" height="70" as="geometry" />
        </mxCell>
        <mxCell id="o9f4KpwQg1YmGxY4Iknc-27" value="&lt;font style=&quot;font-size: 11px&quot;&gt;&lt;b&gt;&lt;i&gt;useState() y useEffect()&lt;/i&gt;&lt;/b&gt;&lt;/font&gt;" style="text;html=1;strokeColor=none;fillColor=none;align=center;verticalAlign=middle;whiteSpace=wrap;rounded=0;fontFamily=Helvetica;fontSize=10;" parent="1" vertex="1">
          <mxGeometry x="424" y="240" width="170" height="30" as="geometry" />
        </mxCell>
        <mxCell id="o9f4KpwQg1YmGxY4Iknc-28" value="&lt;font style=&quot;font-size: 11px&quot;&gt;&lt;b&gt;&lt;i&gt;useState() y useEffect()&lt;/i&gt;&lt;/b&gt;&lt;/font&gt;" style="text;html=1;strokeColor=none;fillColor=none;align=center;verticalAlign=middle;whiteSpace=wrap;rounded=0;fontFamily=Helvetica;fontSize=10;" parent="1" vertex="1">
          <mxGeometry x="244" y="451" width="170" height="30" as="geometry" />
        </mxCell>
        <mxCell id="o9f4KpwQg1YmGxY4Iknc-29" value="&lt;b&gt;&lt;u style=&quot;background-color: rgb(51 , 255 , 51)&quot;&gt;Pokebounce&lt;/u&gt;&lt;br&gt;&lt;/b&gt;&lt;br&gt;&lt;br&gt;&lt;br&gt;&lt;br&gt;&lt;br&gt;&lt;br&gt;" style="rounded=0;whiteSpace=wrap;html=1;" parent="1" vertex="1">
          <mxGeometry x="440" y="290" width="320" height="190" as="geometry" />
        </mxCell>
        <mxCell id="o9f4KpwQg1YmGxY4Iknc-30" style="edgeStyle=orthogonalEdgeStyle;rounded=0;orthogonalLoop=1;jettySize=auto;html=1;exitX=1;exitY=0.5;exitDx=0;exitDy=0;entryX=0.5;entryY=0;entryDx=0;entryDy=0;fontSize=10;" parent="1" source="o9f4KpwQg1YmGxY4Iknc-31" target="o9f4KpwQg1YmGxY4Iknc-34" edge="1">
          <mxGeometry relative="1" as="geometry" />
        </mxCell>
        <mxCell id="o9f4KpwQg1YmGxY4Iknc-31" value="&lt;span style=&quot;font-size: 10px&quot;&gt;Input de texto +&amp;nbsp;&lt;/span&gt;&lt;span style=&quot;font-size: 10px&quot;&gt;&amp;nbsp;la petición deberá realizarse según escribimos&lt;/span&gt;" style="text;html=1;strokeColor=none;fillColor=none;align=center;verticalAlign=middle;whiteSpace=wrap;rounded=0;" parent="1" vertex="1">
          <mxGeometry x="522.5" y="361" width="155" height="30" as="geometry" />
        </mxCell>
        <mxCell id="o9f4KpwQg1YmGxY4Iknc-33" style="edgeStyle=orthogonalEdgeStyle;rounded=0;orthogonalLoop=1;jettySize=auto;html=1;exitX=0.5;exitY=1;exitDx=0;exitDy=0;fontSize=10;" parent="1" source="o9f4KpwQg1YmGxY4Iknc-34" edge="1">
          <mxGeometry relative="1" as="geometry">
            <Array as="points">
              <mxPoint x="610" y="450" />
              <mxPoint x="610" y="436" />
            </Array>
            <mxPoint x="570" y="436" as="targetPoint" />
          </mxGeometry>
        </mxCell>
        <mxCell id="o9f4KpwQg1YmGxY4Iknc-34" value="&lt;i&gt;&lt;font style=&quot;font-size: 10px&quot;&gt;useState&lt;br&gt;inputValue (&quot;&quot;)&lt;br&gt;pokemonsData ([{}])&lt;/font&gt;&lt;/i&gt;" style="text;html=1;strokeColor=none;fillColor=none;align=center;verticalAlign=middle;whiteSpace=wrap;rounded=0;" parent="1" vertex="1">
          <mxGeometry x="650" y="390" width="100.5" height="60" as="geometry" />
        </mxCell>
        <mxCell id="o9f4KpwQg1YmGxY4Iknc-35" value="&lt;span style=&quot;font-size: 10px&quot;&gt;&lt;i&gt;el pokemon encontrado deberá concatenarse a la lista [] (state)&lt;/i&gt;&lt;/span&gt;" style="text;html=1;strokeColor=none;fillColor=none;align=center;verticalAlign=middle;whiteSpace=wrap;rounded=0;" parent="1" vertex="1">
          <mxGeometry x="440" y="290" width="320" height="30" as="geometry" />
        </mxCell>
        <mxCell id="o9f4KpwQg1YmGxY4Iknc-38" value="&lt;font&gt;&lt;i&gt;&lt;span style=&quot;font-size: 11px&quot;&gt;&lt;b&gt;Debounce &lt;/b&gt;&lt;/span&gt;&lt;b style=&quot;font-size: 11px&quot;&gt;useState() y useEffect()&amp;nbsp;&lt;/b&gt;&lt;/i&gt;&lt;/font&gt;" style="text;html=1;strokeColor=none;fillColor=none;align=center;verticalAlign=middle;whiteSpace=wrap;rounded=0;fontFamily=Helvetica;fontSize=10;" parent="1" vertex="1">
          <mxGeometry x="570" y="451" width="204" height="30" as="geometry" />
        </mxCell>
        <mxCell id="o9f4KpwQg1YmGxY4Iknc-39" value="1" style="text;html=1;strokeColor=#030202;fillColor=none;align=center;verticalAlign=middle;whiteSpace=wrap;rounded=0;fontFamily=Helvetica;fontSize=11;" parent="1" vertex="1">
          <mxGeometry x="260" y="80" width="20" height="10" as="geometry" />
        </mxCell>
        <mxCell id="o9f4KpwQg1YmGxY4Iknc-41" value="2" style="text;html=1;strokeColor=#030202;fillColor=none;align=center;verticalAlign=middle;whiteSpace=wrap;rounded=0;fontFamily=Helvetica;fontSize=11;" parent="1" vertex="1">
          <mxGeometry x="80" y="290" width="20" height="10" as="geometry" />
        </mxCell>
        <mxCell id="o9f4KpwQg1YmGxY4Iknc-42" value="3" style="text;html=1;strokeColor=#030202;fillColor=none;align=center;verticalAlign=middle;whiteSpace=wrap;rounded=0;fontFamily=Helvetica;fontSize=11;" parent="1" vertex="1">
          <mxGeometry x="440" y="290" width="20" height="10" as="geometry" />
        </mxCell>
        <mxCell id="QFjQeapoT2HNyd6oGGUI-2" value="&lt;u&gt;&lt;b style=&quot;background-color: rgb(51 , 255 , 51)&quot;&gt;Footer&lt;/b&gt;&lt;/u&gt;" style="rounded=0;whiteSpace=wrap;html=1;" parent="1" vertex="1">
          <mxGeometry x="60" y="520" width="730" height="50" as="geometry" />
        </mxCell>
        <mxCell id="QFjQeapoT2HNyd6oGGUI-3" value="&lt;b&gt;&lt;u style=&quot;background-color: rgb(51 , 255 , 51)&quot;&gt;Header&lt;/u&gt;&lt;/b&gt;&amp;nbsp;&lt;br&gt;&lt;font style=&quot;font-size: 9px&quot;&gt;(Router)&lt;/font&gt;" style="rounded=0;whiteSpace=wrap;html=1;" parent="1" vertex="1">
          <mxGeometry x="60" y="10" width="730" height="50" as="geometry" />
        </mxCell>
        <mxCell id="QFjQeapoT2HNyd6oGGUI-4" value="&lt;span style=&quot;background-color: rgb(51 , 255 , 51)&quot;&gt;&amp;lt;&lt;b&gt;&lt;u&gt;Nav&lt;/u&gt;&lt;/b&gt;&amp;gt;&lt;br&gt;&lt;/span&gt;&lt;span style=&quot;font-size: 9px&quot;&gt;(Router)&lt;/span&gt;" style="rounded=0;whiteSpace=wrap;html=1;" parent="1" vertex="1">
          <mxGeometry x="673" y="20" width="77.5" height="30" as="geometry" />
        </mxCell>
        <mxCell id="rwOSD2lYNe8dSku0r1C--2" value="&lt;b&gt;&lt;u&gt;&lt;font style=&quot;font-size: 14px ; background-color: rgb(51 , 255 , 51)&quot;&gt;Main&lt;/font&gt;&lt;/u&gt;&lt;/b&gt;" style="text;html=1;strokeColor=none;fillColor=none;align=center;verticalAlign=middle;whiteSpace=wrap;rounded=0;" vertex="1" parent="1">
          <mxGeometry x="90" y="80" width="60" height="30" as="geometry" />
        </mxCell>
        <mxCell id="rwOSD2lYNe8dSku0r1C--5" value="&lt;b&gt;Pokelist.&amp;nbsp; &amp;nbsp; &amp;nbsp; &amp;nbsp; &amp;nbsp;&amp;nbsp;&lt;/b&gt;&lt;br&gt;&lt;font style=&quot;font-size: 10px&quot;&gt;Datos e img de pokemon&lt;/font&gt;" style="rounded=0;whiteSpace=wrap;html=1;" vertex="1" parent="1">
          <mxGeometry x="449" y="380" width="90" height="70" as="geometry" />
        </mxCell>
        <mxCell id="rwOSD2lYNe8dSku0r1C--6" value="&lt;b&gt;Pokelist.&amp;nbsp; &amp;nbsp; &amp;nbsp; &amp;nbsp;&lt;/b&gt;&lt;br&gt;&lt;font style=&quot;font-size: 10px&quot;&gt;Datos e img de pokemon&lt;/font&gt;" style="rounded=0;whiteSpace=wrap;html=1;" vertex="1" parent="1">
          <mxGeometry x="459" y="390" width="90" height="70" as="geometry" />
        </mxCell>
        <mxCell id="rwOSD2lYNe8dSku0r1C--7" value="&lt;span style=&quot;background-color: rgb(51 , 255 , 51)&quot;&gt;&lt;b&gt;Pokebouncelist&lt;/b&gt;&lt;br&gt;&lt;/span&gt;&lt;font style=&quot;font-size: 10px&quot;&gt;Datos e img de los pokemons&lt;/font&gt;" style="rounded=0;whiteSpace=wrap;html=1;" vertex="1" parent="1">
          <mxGeometry x="479" y="400" width="90" height="70" as="geometry" />
        </mxCell>
      </root>
    </mxGraphModel>
  </diagram>
</mxfile>
